# xmcd
#
# Track frame offsets: 
#        150
#        21819
#        46096
#        65950
#        91191
#        112826
#        135563
#        153302
#        169250
#        194693
#        212798
#        228127
#
# Disc length: 3464 seconds
#
# Revision: 0
# Processed by: cddbd v1.5.2PL0 Copyright (c) Steve Scherf et al.
# Submitted via: ExactAudioCopyFreeDBPlugin 1.0
#
DISCID=9d0d860c
DTITLE=Matt Woosey Band - On The Waggon
DYEAR=2013
DGENRE=Blues
TTITLE0=Black Smoke Risin'
TTITLE1=Cruel Disposition
TTITLE2=Don't Need Money
TTITLE3=Elsie May
TTITLE4=Find a Way
TTITLE5=Jealous Man
TTITLE6=Noah
TTITLE7=One of the Three
TTITLE8=She Just Called
TTITLE9=That's My Baby
TTITLE10=Woke Up This Morning
TTITLE11=Dopey Mick
EXTD=
EXTT0=
EXTT1=
EXTT2=
EXTT3=
EXTT4=
EXTT5=
EXTT6=
EXTT7=
EXTT8=
EXTT9=
EXTT10=
EXTT11=
PLAYORDER=
